<svg width="580" height="400" xmlns="http://www.w3.org/2000/svg">
 <!-- Created with Method Draw - http://github.com/duopixel/Method-Draw/ -->

 <g>
  <title>background</title>
  <rect fill="#fff" id="canvas_background" height="402" width="582" y="-1" x="-1"/>
  <g display="none" overflow="visible" y="0" x="0" height="100%" width="100%" id="canvasGrid">
   <rect fill="url(#gridpattern)" stroke-width="0" y="0" x="0" height="100%" width="100%"/>
  </g>
 </g>
 <g>
  <title>Layer 1</title>
  <g id="svg_16">
   <g transform="matrix(2.9598798519173783,0,0,2.9598798519173783,-864.7574720104659,-1854.900488582806) " id="svg_12">
    <path id="svg_11" d="m319.241861,679.517628c-8.757,0 -15.882,7.125 -15.882,15.882c0,8.758 7.125,15.882 15.882,15.882c8.758,0 15.883,-7.124 15.883,-15.882c0,-8.758 -7.125,-15.882 -15.883,-15.882zm0,30.543c-8.083,0 -14.66,-6.577 -14.66,-14.661s6.577,-14.661 14.66,-14.661c8.084,0 14.661,6.577 14.661,14.661s-6.577,14.661 -14.661,14.661z" fill="#777777"/>
   </g>
   <g transform="matrix(2.9598798519173783,0,0,2.9598798519173783,-864.7574720104659,-1854.900488582806) " id="svg_15">
    <path id="svg_13" d="m359.674861,679.517628c-8.757,0 -15.882,7.125 -15.882,15.882c0,8.759 7.125,15.882 15.882,15.882c8.758,0 15.883,-7.123 15.883,-15.882c0,-8.757 -7.125,-15.882 -15.883,-15.882zm0,30.544c-8.083,0 -14.66,-6.578 -14.66,-14.661c0,-8.083 6.577,-14.661 14.66,-14.661c8.084,0 14.661,6.577 14.661,14.661c0,8.083 -6.577,14.661 -14.661,14.661z" fill="#077AF4"/>
    <path id="svg_14" d="m367.159861,688.885628l-9.388,10.562l-5.656,-4.524c-0.263,-0.211 -0.648,-0.167 -0.858,0.095c-0.211,0.264 -0.168,0.648 0.095,0.859l6.108,4.887c0.113,0.09 0.248,0.134 0.382,0.134c0.169,0 0.337,-0.069 0.457,-0.205l9.774,-10.996c0.224,-0.251 0.201,-0.638 -0.051,-0.862c-0.253,-0.225 -0.639,-0.203 -0.863,0.05z" fill="#077AF4"/>
   </g>
   <g fill="#fff" transform="matrix(2.9598798519173783,0,0,2.9598798519173783,-864.7574720104659,-1854.900488582806) " id="svg_28">
    <path id="svg_27" d="m400.775128,679.517651c-8.757,0 -15.882,7.125 -15.882,15.882c0,8.758 7.125,15.882 15.882,15.882c8.758,0 15.883,-7.124 15.883,-15.882c0,-8.758 -7.125,-15.882 -15.883,-15.882zm0,30.543c-8.083,0 -14.66,-6.577 -14.66,-14.661s6.577,-14.661 14.66,-14.661c8.084,0 14.661,6.577 14.661,14.661s-6.577,14.661 -14.661,14.661z" fill="#e5e5e5"/>
   </g>
   <ellipse stroke="#DDDDDD" ry="44.610774" rx="44.610779" id="svg_47" cy="203.550038" cx="321.685191" fill-opacity="null" stroke-opacity="null" stroke-width="1.5" fill="#e5e5e5"/>
   <g transform="matrix(2.9598798519173783,0,0,2.9598798519173783,-864.7574720104659,-1854.900488582806) " id="svg_51">
    <path id="svg_50" d="m400.851369,679.51763c-8.757,0 -15.882,7.125 -15.882,15.882c0,8.758 7.125,15.882 15.882,15.882c8.758,0 15.883,-7.124 15.883,-15.882c0,-8.758 -7.125,-15.882 -15.883,-15.882zm0,30.543c-8.083,0 -14.66,-6.577 -14.66,-14.661s6.577,-14.661 14.66,-14.661c8.084,0 14.661,6.577 14.661,14.661s-6.577,14.661 -14.661,14.661z" fill="#777777"/>
   </g>
  </g>
 </g>
</svg>